<svg id="Logo" xmlns="http://www.w3.org/2000/svg" viewBox="0 0 136.78 99.21"><defs><style>.cls-1{fill:#1a1a18;}</style></defs><title>Logo</title><path class="cls-1" d="M2.47,37.59H6.88c.8,3.4,3.09,4.47,6.29,4.47,2.56,0,4.16-1,4.16-2.92s-2.06-2.84-3.76-3.36c-1.54-.47-3.24-.87-5.09-1.58-2.8-1.1-4.9-2.65-4.9-6,0-5.12,4.57-7,8.66-7,5.55,0,8.57,3.2,8.73,7.83H16.59c-.31-3.45-2.65-4.23-4.65-4.23-1.3,0-3.92.41-3.92,3,0,1.47.87,2.18,2.72,2.86,1.23.46,2.09.68,4.22,1.3,1.91.52,6.56,1.51,6.56,6.81,0,4.65-3.08,6.84-8.66,6.84C6.05,45.67,2.88,42.19,2.47,37.59Z" transform="translate(-2.47 -21.26)"/><path class="cls-1" d="M25.14,40.43V32.57h-2V29.36c1.75,0,2.22-.8,2.22-2.61V24.83h3.85V29h3.33v3.57H29.21v6.75c0,2,.8,2.47,2.65,2.47h1v3.57a17.46,17.46,0,0,1-2.4.12C26.5,45.48,25.14,43.7,25.14,40.43Z" transform="translate(-2.47 -21.26)"/><path class="cls-1" d="M34.39,37.07c0-5,3.15-8.57,8.11-8.57s8,3.55,8,8.57-3.11,8.6-8,8.6S34.39,42,34.39,37.07Zm12.14,0c0-3.3-1.57-5.27-4.06-5.27s-4.1,2-4.1,5.27,1.6,5.3,4.1,5.3S46.53,40.4,46.53,37.07Z" transform="translate(-2.47 -21.26)"/><path class="cls-1" d="M69.35,37c0,5.18-2.83,8.63-7.12,8.63a6.48,6.48,0,0,1-5-2.4v9.3H53.17V29h4v2.06a6.59,6.59,0,0,1,5.08-2.56C66.48,28.5,69.35,31.92,69.35,37Zm-4,.06c0-3.17-1.6-5.3-4-5.3s-4.07,1.85-4.07,4.65v1.48c0,2.65,1.66,4.44,4.1,4.44S65.34,40.24,65.34,37.1Z" transform="translate(-2.47 -21.26)"/><path class="cls-1" d="M2.87,96.55h9c4.59,0,7.68,2.32,7.68,6.94,0,4.41-3,6.9-7.93,6.9H7V120H2.87ZM11,106.79c2.52,0,4.31-1,4.31-3.27,0-2.13-1.6-3.33-4.31-3.33H7v6.6Z" transform="translate(-2.47 -21.26)"/><path class="cls-1" d="M22.67,103.8h3.91v3a6.55,6.55,0,0,1,2.81-2.93,7.12,7.12,0,0,1,3-.52v4.13h-.52c-3.24,0-5.18,2.19-5.18,5.55V120H22.67Z" transform="translate(-2.47 -21.26)"/><path class="cls-1" d="M33.19,111.87c0-5,3.14-8.56,8.1-8.56s8.05,3.54,8.05,8.56-3.12,8.6-8.05,8.6S33.19,116.8,33.19,111.87Zm12.14,0c0-3.29-1.57-5.27-4.07-5.27s-4.1,2-4.1,5.27,1.6,5.3,4.1,5.3S45.33,115.2,45.33,111.87Z" transform="translate(-2.47 -21.26)"/><path class="cls-1" d="M52.83,107.37h-2V103.8h2v-2.07c0-3.26,1.2-5.67,5.21-5.67a9.76,9.76,0,0,1,2.31.19v3.26a4,4,0,0,0-1-.09c-1.82,0-2.49.8-2.49,2.16v2.22h3.23v3.57H56.9V120H52.83Z" transform="translate(-2.47 -21.26)"/><path class="cls-1" d="M62.39,96.55H66.7v4H62.39Zm.12,7.25h4.07V120H62.51Z" transform="translate(-2.47 -21.26)"/><path class="cls-1" d="M70.19,96.55h4.07V120H70.19Z" transform="translate(-2.47 -21.26)"/><path class="cls-1" d="M76.82,111.87c0-5,2.9-8.56,7.74-8.56,4.37,0,7.67,2.83,7.67,7.61V113H80.86c.27,2.53,1.6,4.13,3.91,4.13a3.54,3.54,0,0,0,3.48-2.31h4c-.28,2.59-3,5.61-7.58,5.61C79.62,120.47,76.82,116.8,76.82,111.87Zm11.4-1.48a3.65,3.65,0,1,0-7.3,0Z" transform="translate(-2.47 -21.26)"/><path class="cls-1" d="M95.11,103.8H99v3a6.53,6.53,0,0,1,2.8-2.93,7.17,7.17,0,0,1,3.06-.52v4.13h-.53c-3.23,0-5.18,2.19-5.18,5.55V120H95.11Z" transform="translate(-2.47 -21.26)"/><path class="cls-1" d="M105.62,111.87c0-5,2.9-8.56,7.74-8.56,4.38,0,7.67,2.83,7.67,7.61V113H109.66c.28,2.53,1.6,4.13,3.91,4.13a3.55,3.55,0,0,0,3.49-2.31h4c-.28,2.59-3,5.61-7.58,5.61C108.43,120.47,105.62,116.8,105.62,111.87ZM117,110.39a3.66,3.66,0,1,0-7.31,0Z" transform="translate(-2.47 -21.26)"/><path class="cls-1" d="M123.91,103.8H128v2.43a6,6,0,0,1,5.36-2.92c3.73,0,5.92,2.65,5.92,6.71v10h-4.07v-8.6c0-3.24-1.2-4.78-3.24-4.78s-4,1.94-4,5.09V120h-4.07Z" transform="translate(-2.47 -21.26)"/><path class="cls-1" d="M46,79.3v4H29.21V59.9H45.49v4H33.28v5.37h11.1v3.85H33.28V79.3Z" transform="translate(-2.47 -21.26)"/><path class="cls-1" d="M49.54,78.59V70.73h-2V67.52c1.75,0,2.22-.8,2.22-2.62V63h3.85v4.16h3.33v3.58H53.61v6.75c0,2,.8,2.47,2.65,2.47h1v3.57a15.88,15.88,0,0,1-2.4.13C50.9,83.65,49.54,81.86,49.54,78.59Z" transform="translate(-2.47 -21.26)"/><path class="cls-1" d="M60.06,67.15h4.07v2.44a6,6,0,0,1,5.37-2.93c3.73,0,5.92,2.65,5.92,6.72v10H71.35v-8.6c0-3.24-1.2-4.78-3.24-4.78s-4,1.94-4,5.08v8.3H60.06Z" transform="translate(-2.47 -21.26)"/><path class="cls-1" d="M79.13,59.9h4.32v4H79.13Zm.12,7.25h4.07V83.34H79.25Z" transform="translate(-2.47 -21.26)"/><path class="cls-1" d="M86.2,78H90c.43,2,1.76,2.69,4.19,2.69,1.55,0,2.56-.59,2.56-1.79s-1.85-1.76-3.33-2.16c-3.76-1-6.47-2-6.5-5.27-.07-3.49,3-4.84,6.81-4.84,4.29,0,6.51,2.15,6.66,5.42H96.53c-.19-1.85-1.64-2.34-3-2.34s-2.93.34-2.93,1.66,2,1.76,4.87,2.47c2.56.68,5.21,1.48,5.21,4.87s-2.4,5.09-6.51,5.09C88.94,83.83,86.51,81.43,86.2,78Z" transform="translate(-2.47 -21.26)"/><path class="cls-1" d="M102.77,75.23c0-5,2.86-8.57,7.83-8.57,4.29,0,7.31,2.65,7.59,6.53h-4C113.84,71,112.57,70,110.66,70c-2.47,0-3.92,2-3.92,5.27s1.45,5.3,3.92,5.3a3.51,3.51,0,0,0,3.55-3h4c-.28,3.33-3,6.35-7.59,6.35C105.57,83.83,102.77,80.16,102.77,75.23Z" transform="translate(-2.47 -21.26)"/><path class="cls-1" d="M121.06,59.9h4.07v9.69a6,6,0,0,1,5.37-2.93c3.73,0,5.92,2.52,5.92,6.6V83.34h-4.07v-8.6c0-3.24-1.21-4.78-3.24-4.78-2.19,0-4,1.94-4,5.08v8.3h-4.07Z" transform="translate(-2.47 -21.26)"/></svg>